<svg width="20" height="20" viewBox="0 0 20 20" fill="none" xmlns="http://www.w3.org/2000/svg">
<path fill-rule="evenodd" clip-rule="evenodd" d="M19.8215 8.00387H10.2113C10.2113 9.0033 10.2113 11.0022 10.2052 12.0016H15.774C15.5606 13.0011 14.804 14.4003 13.735 15.1049C13.734 15.1039 13.7329 15.1109 13.7309 15.1099C12.3096 16.0483 10.4339 16.2612 9.04116 15.9814C6.85813 15.5476 5.13049 13.9645 4.42902 11.9536C4.43311 11.9506 4.43617 11.9227 4.43923 11.9207C4.00018 10.6734 4.00018 9.0033 4.43923 8.00387H4.43821C5.00388 6.1669 6.78359 4.49084 8.96969 4.0321C10.728 3.65931 12.7119 4.06308 14.171 5.42832C14.365 5.23842 16.8564 2.80579 17.0432 2.6079C12.0584 -1.90656 4.07676 -0.31845 1.09015 5.51127H1.08913C1.08913 5.51127 1.09015 5.51127 1.08402 5.52226C-0.393455 8.38565 -0.332191 11.7598 1.09423 14.4862C1.09015 14.4892 1.08709 14.4912 1.08402 14.4942C2.37669 17.0028 4.72921 18.9267 7.56368 19.6593C10.5748 20.4489 14.4068 19.9092 16.9738 17.5875C16.9748 17.5885 16.9758 17.5895 16.9769 17.5905C19.1517 15.6316 20.5056 12.2944 19.8215 8.00387Z" fill="#D7D7D7"/>
</svg>
