<svg width="92" height="30" viewBox="0 0 92 30" fill="none" xmlns="http://www.w3.org/2000/svg">
<path d="M0.513317 22.9999V1.1817H14.7037V4.49491H4.46573V10.4182H13.9686V13.7314H4.46573V19.6867H14.7889V22.9999H0.513317ZM22.4221 13.4118V22.9999H18.5655V6.63624H22.2516V9.41678H22.4434C22.8198 8.50059 23.4199 7.7726 24.2438 7.23283C25.0748 6.69306 26.101 6.42317 27.3226 6.42317C28.4519 6.42317 29.4355 6.66465 30.2736 7.1476C31.1188 7.63056 31.7722 8.33013 32.2338 9.24633C32.7026 10.1625 32.9334 11.274 32.9263 12.5808V22.9999H29.0698V13.1774C29.0698 12.0837 28.7857 11.2279 28.2175 10.61C27.6564 9.99206 26.8787 9.68312 25.8844 9.68312C25.2097 9.68312 24.6096 9.83226 24.084 10.1306C23.5655 10.4218 23.1571 10.8443 22.8588 11.3983C22.5676 11.9523 22.4221 12.6235 22.4221 13.4118ZM44.0911 23.3195C42.4505 23.3195 41.0336 22.9786 39.8404 22.2968C38.6543 21.6078 37.7417 20.6348 37.1025 19.3777C36.4632 18.1135 36.1436 16.6256 36.1436 14.9139C36.1436 13.2307 36.4632 11.7534 37.1025 10.4821C37.7488 9.20371 38.6507 8.20939 39.8084 7.49917C40.9661 6.78184 42.3262 6.42317 43.8887 6.42317C44.8972 6.42317 45.8489 6.58653 46.7438 6.91323C47.6458 7.23283 48.4412 7.72999 49.1301 8.40471C49.8262 9.07942 50.373 9.9388 50.7708 10.9828C51.1685 12.0198 51.3674 13.2556 51.3674 14.6902V15.8727H37.9547V13.2733H47.6706C47.6635 12.5347 47.5037 11.8777 47.1912 11.3024C46.8787 10.72 46.4419 10.262 45.8809 9.92814C45.3269 9.59434 44.6806 9.42743 43.9419 9.42743C43.1536 9.42743 42.4611 9.6192 41.8645 10.0027C41.2679 10.3791 40.8027 10.8763 40.4689 11.4942C40.1422 12.105 39.9753 12.7762 39.9682 13.5077V15.7769C39.9682 16.7286 40.1422 17.5453 40.4902 18.2272C40.8382 18.9019 41.3248 19.4203 41.9498 19.7825C42.5748 20.1377 43.3063 20.3152 44.1444 20.3152C44.7054 20.3152 45.2132 20.2371 45.6678 20.0808C46.1223 19.9175 46.5165 19.6796 46.8503 19.3671C47.1841 19.0546 47.4363 18.6675 47.6067 18.2058L51.2076 18.6107C50.9803 19.5624 50.5471 20.3933 49.9078 21.1036C49.2757 21.8067 48.4661 22.3536 47.4789 22.7442C46.4917 23.1277 45.3624 23.3195 44.0911 23.3195ZM62.9183 6.63624V9.6192H53.245V6.63624H62.9183ZM55.6634 22.9999V5.0915C55.6634 3.99064 55.8906 3.07445 56.3452 2.34292C56.8068 1.61138 57.4247 1.06451 58.1989 0.702292C58.973 0.340075 59.8324 0.158967 60.777 0.158967C61.4446 0.158967 62.0376 0.212235 62.5561 0.31877C63.0746 0.425304 63.4581 0.521184 63.7067 0.606412L62.9396 3.58937C62.7763 3.53965 62.5703 3.48993 62.3217 3.44022C62.0732 3.3834 61.7962 3.35499 61.4908 3.35499C60.7734 3.35499 60.2656 3.529 59.9673 3.87701C59.6761 4.21792 59.5305 4.70797 59.5305 5.34718V22.9999H55.6634ZM74.1097 6.63624V9.6192H64.7028V6.63624H74.1097ZM67.0252 2.71579H70.8817V18.078C70.8817 18.5965 70.9599 18.9942 71.1161 19.2712C71.2795 19.5411 71.4925 19.7257 71.7553 19.8252C72.0181 19.9246 72.3093 19.9743 72.6289 19.9743C72.8704 19.9743 73.0906 19.9566 73.2894 19.921C73.4954 19.8855 73.6516 19.8536 73.7582 19.8252L74.408 22.8401C74.2021 22.9111 73.9073 22.9892 73.5238 23.0745C73.1474 23.1597 72.6857 23.2094 72.1388 23.2236C71.1729 23.252 70.3029 23.1064 69.5288 22.7868C68.7546 22.4601 68.1403 21.9558 67.6857 21.274C67.2383 20.5922 67.0181 19.7399 67.0252 18.7172V2.71579ZM79.7321 29.1362C79.2065 29.1362 78.72 29.0936 78.2725 29.0084C77.8322 28.9303 77.4806 28.8379 77.2179 28.7314L78.1127 25.7272C78.6738 25.8905 79.1745 25.9686 79.6149 25.9615C80.0552 25.9544 80.4423 25.8159 80.7761 25.546C81.117 25.2833 81.4047 24.8429 81.639 24.225L81.9693 23.3408L76.0353 6.63624H80.1262L83.8976 18.9942H84.068L87.85 6.63624H91.9515L85.3997 24.9814C85.0943 25.8479 84.6895 26.5901 84.1852 27.208C83.6809 27.833 83.063 28.3088 82.3315 28.6355C81.6071 28.9693 80.7406 29.1362 79.7321 29.1362Z" fill="url(#paint0_linear_520_7879)"/>
<defs>
<linearGradient id="paint0_linear_520_7879" x1="104.907" y1="11.9999" x2="-12.4748" y2="14.1914" gradientUnits="userSpaceOnUse">
<stop stop-color="#3F85F6"/>
<stop offset="0.144168" stop-color="#468AF7"/>
<stop offset="0.23419" stop-color="#5898F9"/>
<stop offset="0.333461" stop-color="#6FA9FA"/>
<stop offset="0.431079" stop-color="#82B7FB"/>
<stop offset="0.528723" stop-color="#99C8FE"/>
<stop offset="0.613917" stop-color="#A6CFFD"/>
<stop offset="0.707065" stop-color="#B6D8FE"/>
<stop offset="0.782805" stop-color="#C4DFFD"/>
<stop offset="0.844903" stop-color="#D0E5FD"/>
<stop offset="0.894577" stop-color="#D8E9FE"/>
<stop offset="1" stop-color="#D9E9FE"/>
</linearGradient>
</defs>
</svg>
