<svg width="20" height="20" viewBox="0 0 20 20" fill="none" xmlns="http://www.w3.org/2000/svg">
<path d="M19.7722 18.6724L14.8912 13.7916C16.1044 12.3326 16.8354 10.4591 16.8354 8.41783C16.8354 3.77615 13.0592 -0.00012207 8.41774 -0.00012207C3.77617 -0.00012207 0 3.77615 0 8.41783C0 13.0592 3.77617 16.8352 8.41774 16.8352C10.459 16.8352 12.3325 16.1043 13.7915 14.8911L18.6725 19.772C18.8243 19.9239 19.0234 19.9998 19.2224 19.9998C19.4213 19.9998 19.6204 19.9239 19.7723 19.772C20.0759 19.4684 20.0759 18.9761 19.7722 18.6724ZM1.55517 8.41783C1.55517 4.63367 4.63369 1.55505 8.41774 1.55505C12.2017 1.55505 15.2801 4.63367 15.2801 8.41783C15.2801 12.2017 12.2017 15.28 8.41774 15.28C4.63369 15.28 1.55517 12.2017 1.55517 8.41783Z" fill="#FDFDFD"/>
</svg>
