<svg width="22" height="22" viewBox="0 0 22 22" fill="none" xmlns="http://www.w3.org/2000/svg">
<path d="M12.997 1.23364V5.26364C12.997 5.31886 12.9559 5.36389 12.9007 5.36569C12.1106 5.39142 6.64602 5.73971 3.46951 10.4545C0.590267 14.7282 0.933703 19.258 1.11818 20.6023C1.13237 20.7057 1.27317 20.7141 1.30714 20.6154C1.67541 19.5454 2.89372 16.4573 5.37369 14.0909C8.18322 11.4101 12.2884 11.8173 12.9154 11.8978C12.9642 11.904 12.997 11.9453 12.997 11.9944V15.327C12.997 15.4126 13.0975 15.4586 13.1623 15.4027L20.9166 8.70835C20.9613 8.66977 20.963 8.60107 20.9203 8.56031L13.166 1.16129C13.1023 1.10056 12.997 1.14567 12.997 1.23364Z" stroke="#FDFDFD" stroke-width="1.5" stroke-linejoin="round"/>
</svg>
