<svg width="20" height="17" viewBox="0 0 20 17" fill="none" xmlns="http://www.w3.org/2000/svg">
<path fill-rule="evenodd" clip-rule="evenodd" d="M6.29 16.9231C13.837 16.9231 17.965 10.4116 17.965 4.76539C17.965 4.58003 17.965 4.39571 17.953 4.21244C18.756 3.60846 19.449 2.85869 20 2.00062C19.252 2.34635 18.457 2.57336 17.644 2.67333C18.5 2.13912 19.141 1.2998 19.448 0.309483C18.642 0.807245 17.761 1.15818 16.842 1.34666C15.288 -0.373638 12.689 -0.456946 11.036 1.1613C9.971 2.20473 9.518 3.76049 9.849 5.24441C6.55 5.07155 3.476 3.44913 1.392 0.78017C0.303 2.73269 0.86 5.22983 2.663 6.48361C2.01 6.46382 1.371 6.28055 0.8 5.9494V6.00355C0.801 8.03729 2.178 9.78883 4.092 10.1918C3.488 10.3637 2.854 10.3886 2.24 10.2647C2.777 12.0059 4.318 13.1982 6.073 13.2326C4.62 14.4218 2.825 15.0674 0.977 15.0653C0.651 15.0643 0.325 15.0445 0 15.0039C1.877 16.2577 4.06 16.9231 6.29 16.92" fill="#D7D7D7"/>
</svg>
